<?xml version="1.0" encoding="UTF-8" standalone="no"?>
<!DOCTYPE svg PUBLIC "-//W3C//DTD SVG 1.1//EN"
 "http://www.w3.org/Graphics/SVG/1.1/DTD/svg11.dtd">
<!-- Generated by graphviz version 2.43.0 (0)
 -->
<!-- Title: %3 Pages: 1 -->
<svg width="1571pt" height="210pt"
 viewBox="0.00 0.00 1570.79 210.00" xmlns="http://www.w3.org/2000/svg" xmlns:xlink="http://www.w3.org/1999/xlink">
<g id="graph0" class="graph" transform="scale(1 1) rotate(0) translate(4 206)">
<title>%3</title>
<polygon fill="white" stroke="transparent" points="-4,4 -4,-206 1566.79,-206 1566.79,4 -4,4"/>
<!-- 137868719607344 -->
<g id="node1" class="node">
<title>137868719607344</title>
<polygon fill="none" stroke="black" points="671.5,-55.5 671.5,-91.5 877.5,-91.5 877.5,-55.5 671.5,-55.5"/>
<text text-anchor="middle" x="722.5" y="-69.8" font-family="Times,serif" font-size="14.00">data 0.2355</text>
<polyline fill="none" stroke="black" points="773.5,-55.5 773.5,-91.5 "/>
<text text-anchor="middle" x="825.5" y="-69.8" font-family="Times,serif" font-size="14.00">grad 1.0000</text>
</g>
<!-- 137868719608304+ -->
<g id="node15" class="node">
<title>137868719608304+</title>
<ellipse fill="none" stroke="black" cx="943" cy="-100.5" rx="27" ry="18"/>
<text text-anchor="middle" x="943" y="-96.8" font-family="Times,serif" font-size="14.00">+</text>
</g>
<!-- 137868719607344&#45;&gt;137868719608304+ -->
<g id="edge12" class="edge">
<title>137868719607344&#45;&gt;137868719608304+</title>
<path fill="none" stroke="black" d="M877.63,-90.06C887.87,-91.72 897.71,-93.32 906.48,-94.74"/>
<polygon fill="black" stroke="black" points="906.17,-98.24 916.6,-96.38 907.29,-91.33 906.17,-98.24"/>
</g>
<!-- 137868719607344+ -->
<g id="node2" class="node">
<title>137868719607344+</title>
<ellipse fill="none" stroke="black" cx="606" cy="-73.5" rx="27" ry="18"/>
<text text-anchor="middle" x="606" y="-69.8" font-family="Times,serif" font-size="14.00">+</text>
</g>
<!-- 137868719607344+&#45;&gt;137868719607344 -->
<g id="edge1" class="edge">
<title>137868719607344+&#45;&gt;137868719607344</title>
<path fill="none" stroke="black" d="M633.02,-73.5C641.26,-73.5 650.96,-73.5 661.35,-73.5"/>
<polygon fill="black" stroke="black" points="661.49,-77 671.49,-73.5 661.49,-70 661.49,-77"/>
</g>
<!-- 137868719606864 -->
<g id="node3" class="node">
<title>137868719606864</title>
<polygon fill="none" stroke="black" points="332.5,-165.5 332.5,-201.5 542.5,-201.5 542.5,-165.5 332.5,-165.5"/>
<text text-anchor="middle" x="383.5" y="-179.8" font-family="Times,serif" font-size="14.00">data 0.0665</text>
<polyline fill="none" stroke="black" points="434.5,-165.5 434.5,-201.5 "/>
<text text-anchor="middle" x="488.5" y="-179.8" font-family="Times,serif" font-size="14.00">grad &#45;2.0000</text>
</g>
<!-- 137868719607920* -->
<g id="node5" class="node">
<title>137868719607920*</title>
<ellipse fill="none" stroke="black" cx="606" cy="-128.5" rx="27" ry="18"/>
<text text-anchor="middle" x="606" y="-124.8" font-family="Times,serif" font-size="14.00">*</text>
</g>
<!-- 137868719606864&#45;&gt;137868719607920* -->
<g id="edge10" class="edge">
<title>137868719606864&#45;&gt;137868719607920*</title>
<path fill="none" stroke="black" d="M514.59,-165.47C524.23,-162.71 533.9,-159.7 543,-156.5 553.55,-152.78 564.79,-147.99 574.75,-143.41"/>
<polygon fill="black" stroke="black" points="576.28,-146.56 583.85,-139.14 573.31,-140.22 576.28,-146.56"/>
</g>
<!-- 137868719607920 -->
<g id="node4" class="node">
<title>137868719607920</title>
<polygon fill="none" stroke="black" points="669,-110.5 669,-146.5 880,-146.5 880,-110.5 669,-110.5"/>
<text text-anchor="middle" x="722.5" y="-124.8" font-family="Times,serif" font-size="14.00">data &#45;0.1331</text>
<polyline fill="none" stroke="black" points="776,-110.5 776,-146.5 "/>
<text text-anchor="middle" x="828" y="-124.8" font-family="Times,serif" font-size="14.00">grad 1.0000</text>
</g>
<!-- 137868719607920&#45;&gt;137868719608304+ -->
<g id="edge13" class="edge">
<title>137868719607920&#45;&gt;137868719608304+</title>
<path fill="none" stroke="black" d="M880,-110.93C889.45,-109.34 898.51,-107.81 906.64,-106.45"/>
<polygon fill="black" stroke="black" points="907.48,-109.86 916.76,-104.74 906.32,-102.95 907.48,-109.86"/>
</g>
<!-- 137868719607920*&#45;&gt;137868719607920 -->
<g id="edge2" class="edge">
<title>137868719607920*&#45;&gt;137868719607920</title>
<path fill="none" stroke="black" d="M633.02,-128.5C640.62,-128.5 649.46,-128.5 658.93,-128.5"/>
<polygon fill="black" stroke="black" points="659,-132 669,-128.5 659,-125 659,-132"/>
</g>
<!-- 137868582367360 -->
<g id="node6" class="node">
<title>137868582367360</title>
<polygon fill="none" stroke="black" points="0,-83.5 0,-119.5 206,-119.5 206,-83.5 0,-83.5"/>
<text text-anchor="middle" x="51" y="-97.8" font-family="Times,serif" font-size="14.00">data 1.0000</text>
<polyline fill="none" stroke="black" points="102,-83.5 102,-119.5 "/>
<text text-anchor="middle" x="154" y="-97.8" font-family="Times,serif" font-size="14.00">grad 0.2355</text>
</g>
<!-- 137868719606960* -->
<g id="node8" class="node">
<title>137868719606960*</title>
<ellipse fill="none" stroke="black" cx="269" cy="-73.5" rx="27" ry="18"/>
<text text-anchor="middle" x="269" y="-69.8" font-family="Times,serif" font-size="14.00">*</text>
</g>
<!-- 137868582367360&#45;&gt;137868719606960* -->
<g id="edge9" class="edge">
<title>137868582367360&#45;&gt;137868719606960*</title>
<path fill="none" stroke="black" d="M206.47,-84.01C215.74,-82.42 224.64,-80.9 232.65,-79.54"/>
<polygon fill="black" stroke="black" points="233.36,-82.97 242.63,-77.83 232.18,-76.07 233.36,-82.97"/>
</g>
<!-- 137868719606960 -->
<g id="node7" class="node">
<title>137868719606960</title>
<polygon fill="none" stroke="black" points="334.5,-55.5 334.5,-91.5 540.5,-91.5 540.5,-55.5 334.5,-55.5"/>
<text text-anchor="middle" x="385.5" y="-69.8" font-family="Times,serif" font-size="14.00">data 0.2355</text>
<polyline fill="none" stroke="black" points="436.5,-55.5 436.5,-91.5 "/>
<text text-anchor="middle" x="488.5" y="-69.8" font-family="Times,serif" font-size="14.00">grad 1.0000</text>
</g>
<!-- 137868719606960&#45;&gt;137868719607344+ -->
<g id="edge11" class="edge">
<title>137868719606960&#45;&gt;137868719607344+</title>
<path fill="none" stroke="black" d="M540.63,-73.5C550.68,-73.5 560.34,-73.5 568.99,-73.5"/>
<polygon fill="black" stroke="black" points="568.99,-77 578.99,-73.5 568.99,-70 568.99,-77"/>
</g>
<!-- 137868719606960*&#45;&gt;137868719606960 -->
<g id="edge3" class="edge">
<title>137868719606960*&#45;&gt;137868719606960</title>
<path fill="none" stroke="black" d="M296.02,-73.5C304.26,-73.5 313.96,-73.5 324.35,-73.5"/>
<polygon fill="black" stroke="black" points="324.49,-77 334.49,-73.5 324.49,-70 324.49,-77"/>
</g>
<!-- 137868719607488 -->
<g id="node9" class="node">
<title>137868719607488</title>
<polygon fill="none" stroke="black" points="1356.79,-82.5 1356.79,-118.5 1562.79,-118.5 1562.79,-82.5 1356.79,-82.5"/>
<text text-anchor="middle" x="1407.79" y="-96.8" font-family="Times,serif" font-size="14.00">data 0.1024</text>
<polyline fill="none" stroke="black" points="1458.79,-82.5 1458.79,-118.5 "/>
<text text-anchor="middle" x="1510.79" y="-96.8" font-family="Times,serif" font-size="14.00">grad 1.0000</text>
</g>
<!-- 137868719607488ReLU -->
<g id="node10" class="node">
<title>137868719607488ReLU</title>
<ellipse fill="none" stroke="black" cx="1284.4" cy="-100.5" rx="36.29" ry="18"/>
<text text-anchor="middle" x="1284.4" y="-96.8" font-family="Times,serif" font-size="14.00">ReLU</text>
</g>
<!-- 137868719607488ReLU&#45;&gt;137868719607488 -->
<g id="edge4" class="edge">
<title>137868719607488ReLU&#45;&gt;137868719607488</title>
<path fill="none" stroke="black" d="M1320.9,-100.5C1328.76,-100.5 1337.5,-100.5 1346.64,-100.5"/>
<polygon fill="black" stroke="black" points="1346.71,-104 1356.71,-100.5 1346.71,-97 1346.71,-104"/>
</g>
<!-- 137868719608016 -->
<g id="node11" class="node">
<title>137868719608016</title>
<polygon fill="none" stroke="black" points="332,-110.5 332,-146.5 543,-146.5 543,-110.5 332,-110.5"/>
<text text-anchor="middle" x="385.5" y="-124.8" font-family="Times,serif" font-size="14.00">data &#45;2.0000</text>
<polyline fill="none" stroke="black" points="439,-110.5 439,-146.5 "/>
<text text-anchor="middle" x="491" y="-124.8" font-family="Times,serif" font-size="14.00">grad 0.0665</text>
</g>
<!-- 137868719608016&#45;&gt;137868719607920* -->
<g id="edge6" class="edge">
<title>137868719608016&#45;&gt;137868719607920*</title>
<path fill="none" stroke="black" d="M543,-128.5C552.08,-128.5 560.79,-128.5 568.67,-128.5"/>
<polygon fill="black" stroke="black" points="568.85,-132 578.85,-128.5 568.85,-125 568.85,-132"/>
</g>
<!-- 137868719607056 -->
<g id="node12" class="node">
<title>137868719607056</title>
<polygon fill="none" stroke="black" points="334.5,-0.5 334.5,-36.5 540.5,-36.5 540.5,-0.5 334.5,-0.5"/>
<text text-anchor="middle" x="385.5" y="-14.8" font-family="Times,serif" font-size="14.00">data 0.0000</text>
<polyline fill="none" stroke="black" points="436.5,-0.5 436.5,-36.5 "/>
<text text-anchor="middle" x="488.5" y="-14.8" font-family="Times,serif" font-size="14.00">grad 1.0000</text>
</g>
<!-- 137868719607056&#45;&gt;137868719607344+ -->
<g id="edge8" class="edge">
<title>137868719607056&#45;&gt;137868719607344+</title>
<path fill="none" stroke="black" d="M514.59,-36.53C524.23,-39.29 533.9,-42.3 543,-45.5 553.55,-49.22 564.79,-54.01 574.75,-58.59"/>
<polygon fill="black" stroke="black" points="573.31,-61.78 583.85,-62.86 576.28,-55.44 573.31,-61.78"/>
</g>
<!-- 137868719606624 -->
<g id="node13" class="node">
<title>137868719606624</title>
<polygon fill="none" stroke="black" points="0,-28.5 0,-64.5 206,-64.5 206,-28.5 0,-28.5"/>
<text text-anchor="middle" x="51" y="-42.8" font-family="Times,serif" font-size="14.00">data 0.2355</text>
<polyline fill="none" stroke="black" points="102,-28.5 102,-64.5 "/>
<text text-anchor="middle" x="154" y="-42.8" font-family="Times,serif" font-size="14.00">grad 1.0000</text>
</g>
<!-- 137868719606624&#45;&gt;137868719606960* -->
<g id="edge7" class="edge">
<title>137868719606624&#45;&gt;137868719606960*</title>
<path fill="none" stroke="black" d="M206.47,-63.37C215.74,-64.9 224.64,-66.36 232.65,-67.68"/>
<polygon fill="black" stroke="black" points="232.19,-71.15 242.63,-69.32 233.33,-64.24 232.19,-71.15"/>
</g>
<!-- 137868719608304 -->
<g id="node14" class="node">
<title>137868719608304</title>
<polygon fill="none" stroke="black" points="1006,-82.5 1006,-118.5 1212,-118.5 1212,-82.5 1006,-82.5"/>
<text text-anchor="middle" x="1057" y="-96.8" font-family="Times,serif" font-size="14.00">data 0.1024</text>
<polyline fill="none" stroke="black" points="1108,-82.5 1108,-118.5 "/>
<text text-anchor="middle" x="1160" y="-96.8" font-family="Times,serif" font-size="14.00">grad 1.0000</text>
</g>
<!-- 137868719608304&#45;&gt;137868719607488ReLU -->
<g id="edge14" class="edge">
<title>137868719608304&#45;&gt;137868719607488ReLU</title>
<path fill="none" stroke="black" d="M1212.12,-100.5C1221.01,-100.5 1229.68,-100.5 1237.74,-100.5"/>
<polygon fill="black" stroke="black" points="1237.95,-104 1247.95,-100.5 1237.95,-97 1237.95,-104"/>
</g>
<!-- 137868719608304+&#45;&gt;137868719608304 -->
<g id="edge5" class="edge">
<title>137868719608304+&#45;&gt;137868719608304</title>
<path fill="none" stroke="black" d="M970.35,-100.5C977.8,-100.5 986.4,-100.5 995.61,-100.5"/>
<polygon fill="black" stroke="black" points="995.8,-104 1005.8,-100.5 995.8,-97 995.8,-104"/>
</g>
</g>
</svg>
